<svg width="144" height="74" xmlns="http://www.w3.org/2000/svg">

 <g>
  <title>background</title>
  <rect fill="none" id="canvas_background" height="76" width="146" y="-1" x="-1"/>
 </g>
 <g>
  <title>Layer 1</title>
  <g id="svg_1">
   <g id="svg_2">
    <path id="svg_3" fill="#CF9E76" d="m101.577,30.996c-2.365,-12.591 -11.982,-22.208 -24.573,-24.573c-0.239,-0.04 -0.479,-0.077 -0.72,-0.112c-1.204,-0.172 -2.284,0.773 -2.284,1.99l0,25.699l25.699,0c1.217,0 2.161,-1.08 1.989,-2.284c-0.034,-0.241 -0.071,-0.481 -0.111,-0.72z"/>
    <path id="svg_4" fill="#CF9E76" d="m67.854,10.081c-15.042,1.14 -26.763,14.164 -25.798,29.705c0.865,13.944 12.214,25.293 26.157,26.158c15.541,0.965 28.566,-10.757 29.706,-25.798c0.088,-1.158 -0.841,-2.146 -2.003,-2.146l-25.916,0l0,-25.916c0,-1.162 -0.988,-2.091 -2.146,-2.003z"/>
    <path id="svg_5" fill="#DFB28B" d="m70,13c-13.807,0 -25,11.193 -25,25s11.193,25 25,25s25,-11.193 25,-25l-25,0l0,-25z"/>
    <path id="svg_6" fill="#DFB28B" d="m74,9l0,25l25,0c0,-13.255 -11.745,-25 -25,-25z"/>
    <path id="svg_7" fill="#FCD770" d="m95.911,34c-0.825,-9.986 -7.759,-18.235 -17.059,-21l-1.852,-0.471c-0.979,-0.208 -1.981,-0.355 -3,-0.44l0,21.911l21.911,0z"/>
    <path id="svg_8" fill="#FCD770" d="m70,38l0,-22c-12.15,0 -22,9.85 -22,22s9.85,22 22,22s22,-9.85 22,-22l-22,0z"/>
    <circle id="svg_9" fill="#FC6E51" r="2" cy="53" cx="63"/>
    <circle id="svg_10" fill="#B27946" r="2" cy="28" cx="80"/>
    <circle id="svg_11" fill="#FC6E51" r="2" cy="21" cx="88"/>
    <circle id="svg_12" fill="#B27946" r="2" cy="40" cx="66"/>
    <circle id="svg_13" fill="#B27946" r="2" cy="46" cx="84"/>
    <circle id="svg_14" fill="#FC6E51" r="2" cy="38" cx="56"/>
   </g>
   <g id="svg_15">
    <path id="svg_16" d="m95.916,37l-24.916,0l0,-24.916c0,-0.835 -0.352,-1.641 -0.966,-2.21c-0.609,-0.563 -1.423,-0.852 -2.256,-0.79c-15.713,1.19 -27.7,14.991 -26.721,30.764c0.903,14.544 12.55,26.192 27.094,27.094c0.604,0.037 1.204,0.056 1.802,0.056c15.009,-0.001 27.818,-11.665 28.963,-26.776c0.062,-0.824 -0.226,-1.646 -0.79,-2.256c-0.569,-0.614 -1.375,-0.966 -2.21,-0.966zm-27.642,27.946c-13.538,-0.84 -24.38,-11.683 -25.22,-25.221c-0.912,-14.688 10.247,-27.538 24.875,-28.647c0.271,-0.024 0.541,0.071 0.746,0.263c0.21,0.195 0.325,0.459 0.325,0.743l0,2.941c-12.22,0.526 -22,10.628 -22,22.975c0,12.683 10.317,23 23,23c10.758,0 19.971,-7.309 22.403,-17.773l-1.947,-0.453c-2.222,9.553 -10.633,16.226 -20.456,16.226c-11.579,0 -21,-9.421 -21,-21c0,-3.091 0.688,-6.018 1.893,-8.664c0.121,0.101 0.248,0.218 0.4,0.371c0.546,0.546 1.293,1.293 2.707,1.293s2.161,-0.747 2.707,-1.293c0.49,-0.49 0.731,-0.707 1.293,-0.707l0,-2c-1.414,0 -2.161,0.747 -2.707,1.293c-0.49,0.49 -0.731,0.707 -1.293,0.707s-0.803,-0.217 -1.293,-0.707c-0.241,-0.241 -0.527,-0.52 -0.887,-0.758c3.475,-6.013 9.835,-10.136 17.18,-10.485l0,21.95l21.966,0c-0.029,0.626 -0.076,1.25 -0.16,1.865l1.982,0.27c0.096,-0.704 0.147,-1.419 0.178,-2.135l2.95,0c0.284,0 0.548,0.115 0.743,0.325c0.19,0.206 0.283,0.471 0.263,0.746c-1.11,14.628 -13.942,25.798 -28.648,24.875z"/>
    <path id="svg_17" d="m63,50c-1.654,0 -3,1.346 -3,3s1.346,3 3,3s3,-1.346 3,-3s-1.346,-3 -3,-3zm0,4c-0.552,0 -1,-0.448 -1,-1s0.448,-1 1,-1s1,0.448 1,1s-0.448,1 -1,1z"/>
    <path id="svg_18" d="m77,28c0,1.654 1.346,3 3,3s3,-1.346 3,-3s-1.346,-3 -3,-3s-3,1.346 -3,3zm4,0c0,0.552 -0.448,1 -1,1s-1,-0.448 -1,-1s0.448,-1 1,-1s1,0.448 1,1z"/>
    <path id="svg_19" d="m66,37c-1.654,0 -3,1.346 -3,3s1.346,3 3,3s3,-1.346 3,-3s-1.346,-3 -3,-3zm0,4c-0.552,0 -1,-0.448 -1,-1s0.448,-1 1,-1s1,0.448 1,1s-0.448,1 -1,1z"/>
    <path id="svg_20" d="m84,43c-1.654,0 -3,1.346 -3,3s1.346,3 3,3s3,-1.346 3,-3s-1.346,-3 -3,-3zm0,4c-0.552,0 -1,-0.448 -1,-1s0.448,-1 1,-1s1,0.448 1,1s-0.448,1 -1,1z"/>
    <path id="svg_21" d="m56,35c-1.654,0 -3,1.346 -3,3s1.346,3 3,3s3,-1.346 3,-3s-1.346,-3 -3,-3zm0,4c-0.552,0 -1,-0.448 -1,-1s0.448,-1 1,-1s1,0.448 1,1s-0.448,1 -1,1z"/>
    <path id="svg_22" d="m75,54c-0.562,0 -0.803,-0.217 -1.293,-0.707c-0.546,-0.546 -1.293,-1.293 -2.707,-1.293l0,2c0.562,0 0.803,0.217 1.293,0.707c0.546,0.546 1.293,1.293 2.707,1.293s2.161,-0.747 2.707,-1.293c0.49,-0.49 0.731,-0.707 1.293,-0.707l0,-2c-1.414,0 -2.161,0.747 -2.707,1.293c-0.49,0.49 -0.731,0.707 -1.293,0.707z"/>
    <path id="svg_23" d="m102.679,31.575c-0.036,-0.251 -0.074,-0.501 -0.117,-0.749l-0.003,-0.015c-2.437,-12.975 -12.395,-22.933 -25.385,-25.373c-0.248,-0.043 -0.498,-0.081 -0.748,-0.117c-0.862,-0.12 -1.729,0.136 -2.387,0.705c-0.66,0.574 -1.039,1.403 -1.039,2.275l0,26.699l26.699,0c0.872,0 1.701,-0.379 2.274,-1.039c0.571,-0.658 0.828,-1.527 0.706,-2.386zm-2.216,1.075c-0.196,0.226 -0.467,0.35 -0.764,0.35l-2.904,0c-1.182,-9.78 -8.167,-18.135 -17.659,-20.959l-0.57,1.918c3.018,0.897 5.752,2.413 8.097,4.37c-0.981,0.493 -1.663,1.499 -1.663,2.671c0,1.654 1.346,3 3,3c1.101,0 2.055,-0.603 2.577,-1.49c2.221,3.053 3.698,6.646 4.204,10.49l-19.781,0l0,-11.575c0.091,0.083 0.184,0.173 0.293,0.282c0.546,0.546 1.293,1.293 2.707,1.293s2.161,-0.747 2.707,-1.293c0.49,-0.49 0.731,-0.707 1.293,-0.707l0,-2c-1.414,0 -2.161,0.747 -2.707,1.293c-0.49,0.49 -0.731,0.707 -1.293,0.707s-0.803,-0.217 -1.293,-0.707c-0.399,-0.399 -0.91,-0.904 -1.707,-1.147l0,-5.936c0.603,0.078 1.203,0.172 1.792,0.297l0.416,-1.957c-0.725,-0.153 -1.465,-0.263 -2.208,-0.352l0,-2.897c0,-0.297 0.124,-0.567 0.35,-0.764c0.223,-0.193 0.507,-0.276 0.794,-0.235c0.231,0.032 0.462,0.068 0.676,0.104c12.157,2.283 21.487,11.611 23.772,23.767c0.039,0.227 0.074,0.454 0.106,0.685c0.041,0.288 -0.042,0.57 -0.235,0.792zm-12.463,-12.65c0.552,0 1,0.448 1,1s-0.448,1 -1,1s-1,-0.448 -1,-1s0.448,-1 1,-1z"/>
    <rect id="svg_24" y="27" x="89" width="2" height="2"/>
    <rect id="svg_25" y="29" x="85" width="2" height="2"/>
    <rect id="svg_26" y="42" x="77" width="2" height="2"/>
    <rect id="svg_27" y="45" x="71" width="2" height="2"/>
    <rect id="svg_28" y="43" x="59" width="2" height="2"/>
    <rect id="svg_29" y="22" x="65" width="2" height="2"/>
    <rect id="svg_30" y="29" x="62" width="2" height="2"/>
    <rect id="svg_31" y="46" x="54" width="2" height="2"/>
   </g>
  </g>
  <text stroke="#000" transform="matrix(1.4124066397437787,0,0,1.074570655822754,-8.468415338353651,-1.0037614241746269) " xml:space="preserve"
        font-family="Helvetica, Arial, sans-serif" font-size="24" id="svg_32" y="35.45313" x="17.5" stroke-width="0" fill="#000000"/>
  <text font-weight="bold" xml:space="preserve" font-family="Helvetica, Arial, sans-serif" font-size="69" id="svg_34" y="60.45313" x="0.5" fill-opacity="null" stroke-opacity="null" stroke-width="0" stroke="#000" fill="#000000">4</text>
  <text font-weight="bold" xml:space="preserve" font-family="Helvetica, Arial, sans-serif" font-size="69" id="svg_37" y="60.45313" x="102.5" fill-opacity="null" stroke-opacity="null" stroke-width="0" stroke="#000" fill="#000000">4</text>
 </g>
</svg>
